<svg xmlns="http://www.w3.org/2000/svg" xmlns:xlink="http://www.w3.org/1999/xlink" width="100" height="100" viewBox="0 0 100 100"><g><circle stroke="none" fill="#000000" r="48%" cx="50%" cy="50%"></circle><g transform="translate(50 50) scale(0.69 0.69) rotate(0) translate(-50 -50)" style="fill:#ffffff"><svg fill="#ffffff" xmlns="http://www.w3.org/2000/svg" data-name="Layer 1" viewBox="0 0 512 512" x="0px" y="0px"><title>Audio</title><path d="M335,0H177C79.65,0,0,79.65,0,177V335c0,97.35,79.65,177,177,177H335c97.35,0,177-79.65,177-177V177C512,79.65,432.35,0,335,0Zm20.52,186h0a22.34,22.34,0,0,1-30.81,8.37L293,175.91V336.55a20.76,20.76,0,0,1-2.18,8.55c-6.84,27.37-32.26,48.65-63.52,50.76C189,398.44,156,371.29,153.57,335.21s26.65-67.42,64.93-70A73,73,0,0,1,251,270.4v-133a20.77,20.77,0,0,1,13.2-19.3,22.71,22.71,0,0,1,20.95.93l62,35.81A22.74,22.74,0,0,1,355.52,186Z"></path></svg></g></g></svg>